<?xml version="1.0" standalone="no"?>
<!DOCTYPE svg PUBLIC "-//W3C//DTD SVG 20010904//EN"
 "http://www.w3.org/TR/2001/REC-SVG-20010904/DTD/svg10.dtd">
<svg version="1.0" xmlns="http://www.w3.org/2000/svg"
 width="123.000000pt" height="125.000000pt" viewBox="0 0 123.000000 125.000000"
 preserveAspectRatio="xMidYMid meet">
<metadata>
Created by potrace 1.10, written by Peter Selinger 2001-2011
</metadata>
<g transform="translate(0.000000,125.000000) scale(0.100000,-0.100000)"
fill="rgb(110 103 103)" stroke="none">
<path d="M250 930 c-17 -17 -20 -33 -20 -107 0 -49 5 -95 10 -103 7 -11 37
-16 127 -20 141 -6 157 -1 161 58 4 49 10 51 42 17 37 -40 45 -32 45 45 0 77
-8 85 -45 45 -33 -35 -40 -31 -38 16 2 62 -14 69 -149 69 -100 0 -115 -2 -133
-20z m240 -110 l0 -80 -105 0 -105 0 0 80 0 80 105 0 105 0 0 -80z"/>
<path d="M710 895 l0 -25 115 0 115 0 0 25 0 25 -115 0 -115 0 0 -25z"/>
<path d="M710 795 c0 -25 1 -25 90 -25 89 0 90 0 90 25 0 25 -1 25 -90 25 -89
0 -90 0 -90 -25z"/>
<path d="M234 606 c-10 -25 35 -129 73 -168 38 -39 115 -72 155 -66 18 2 23
10 24 33 1 17 -1 35 -3 42 -8 20 -46 23 -66 6 -17 -16 -20 -16 -51 1 -18 9
-40 31 -50 47 -17 29 -17 31 -1 49 12 13 15 28 11 45 -6 22 -12 25 -47 25 -24
0 -42 -5 -45 -14z"/>
<path d="M602 608 c-16 -16 -16 -210 0 -226 7 -7 39 -12 75 -12 61 0 63 1 63
25 0 24 -3 25 -53 25 l-53 0 0 75 0 75 128 0 128 0 0 -75 0 -75 -32 0 c-28 0
-38 -7 -66 -52 -27 -40 -31 -52 -20 -59 23 -15 36 -10 58 26 17 27 28 35 50
35 50 0 60 21 60 124 0 128 3 126 -181 126 -100 0 -149 -4 -157 -12z"/>
</g>
</svg>
 
 