<svg version="1.1" id="Layer_1" xmlns="http://www.w3.org/2000/svg" xmlns:xlink="http://www.w3.org/1999/xlink" x="0px" y="0px"
	 width="100%" viewBox="0 0 512 512" enable-background="new 0 0 512 512" xml:space="preserve">

<path fill="rgb(110 103 103)"  stroke="none" stroke-width="20"
 
	d="
M513.000000,121.531342 
	C510.652069,130.231186 509.313995,138.696091 506.144379,146.758469 
	C501.413818,158.791397 495.201538,170.008743 486.208832,179.086639 
	C439.426117,226.312622 392.481537,273.382324 345.177338,320.085083 
	C331.997589,333.097229 315.464050,341.160980 297.282196,344.908325 
	C268.422394,350.856476 241.024658,346.613403 215.880630,330.883972 
	C208.849197,326.485260 202.288956,321.215607 196.577560,315.073486 
	C191.237350,309.330536 190.052261,295.864319 194.230408,289.376923 
	C199.393143,281.360779 209.409088,277.883820 218.211380,279.446564 
	C225.751617,280.785278 229.617401,286.644958 234.963608,290.617493 
	C247.705032,300.084991 261.977173,304.992706 277.619720,303.798981 
	C293.100464,302.617645 306.935608,296.626953 318.187164,285.351837 
	C362.436768,241.009567 406.752747,196.733551 451.058899,152.447769 
	C461.251892,142.259445 466.982025,129.993286 469.054596,115.756317 
	C472.091949,94.892166 465.072174,77.313408 450.921234,62.710854 
	C440.964355,52.436157 428.348145,46.632629 413.729980,44.860378 
	C393.382050,42.393475 376.243011,48.745895 361.984039,62.668282 
	C337.906036,86.177948 314.255249,110.126884 290.544312,134.009750 
	C283.281372,141.325287 274.639526,142.976303 265.434784,139.866135 
	C251.709610,135.228577 247.028595,115.860825 256.920685,105.772240 
	C283.280243,78.889191 309.642609,51.979118 336.890198,26.009760 
	C349.575958,13.919109 365.683044,6.817123 382.990570,2.897707 
	C385.914795,2.235495 388.812012,2.219734 391.852692,1.394082 
	C401.020905,1.000000 410.041779,1.000000 419.531342,1.000000 
	C430.524323,1.636613 440.569672,4.112703 450.190186,8.486304 
	C475.644257,20.058065 494.166656,38.503628 505.568024,64.042862 
	C509.733032,73.372475 512.776428,82.997162 512.773926,93.692780 
	C513.000000,103.020897 513.000000,112.041786 513.000000,121.531342 
z"/>
<path fill="rgb(110 103 103)" stroke="none" stroke-width="20"
 
	d="
M1.000000,389.468658 
	C4.292198,382.087463 4.966104,374.384735 7.817821,367.268799 
	C12.626984,355.268433 18.779531,344.027405 27.762726,334.944672 
	C70.641609,291.590759 113.674538,248.383331 157.135880,205.614822 
	C170.196762,192.762161 186.650803,184.859024 204.655136,181.105087 
	C220.678818,177.764130 236.838394,177.772034 252.932632,181.426453 
	C270.286041,185.366776 285.401520,193.364624 298.790405,205.082153 
	C303.277832,209.009399 307.758575,212.559723 309.147339,218.659027 
	C311.786255,230.248947 309.524841,237.699265 300.074432,243.904953 
	C291.588776,249.477142 279.779694,247.377045 273.194000,240.905350 
	C263.083008,230.969406 250.894302,224.852982 236.547745,222.904877 
	C216.284164,220.153290 198.795105,226.124054 184.601227,240.112717 
	C143.782135,280.341553 103.434662,321.049103 62.924774,361.591461 
	C52.768764,371.755585 46.863754,383.940002 44.926643,398.266907 
	C42.403217,416.930206 47.855000,432.866486 59.631443,447.252319 
	C69.180351,458.917053 81.547836,465.995789 95.859474,468.732086 
	C116.709663,472.718475 135.645737,467.085876 150.965088,452.346008 
	C171.610901,432.481140 191.710403,412.041229 211.792206,391.600403 
	C222.552887,380.647308 244.682770,382.319702 249.255554,400.740631 
	C251.144608,408.350464 250.133026,415.322327 244.442215,421.036041 
	C222.691910,442.873993 201.242538,465.031494 178.936478,486.288666 
	C165.323135,499.261871 148.701385,507.468781 130.001831,511.086182 
	C127.428680,511.583984 124.873451,511.937897 122.143799,512.608582 
	C112.979103,513.000000 103.958214,513.000000 94.468658,513.000000 
	C83.303917,512.352783 73.114929,509.773529 63.356209,505.305725 
	C38.603252,493.972992 20.489998,475.965210 9.002635,451.335175 
	C5.194908,443.170990 2.412880,434.639923 1.225062,425.304077 
	C1.000000,413.312439 1.000000,401.624878 1.000000,389.468658 
z"/>
</svg>