<svg version="1.1" id="Layer_1" xmlns="http://www.w3.org/2000/svg" xmlns:xlink="http://www.w3.org/1999/xlink" x="0px" y="0px"
	 width="100%" viewBox="0 0 512 512" enable-background="new 0 0 512 512" xml:space="preserve">
<path fill="#FFFFFF" opacity="1.000000" stroke="none" 
	d="
M512.631836,121.947517 
	C513.000000,250.927795 512.979492,379.855621 513.103699,508.783295 
	C513.107239,512.473083 512.241272,513.093262 508.721283,513.090271 
	C380.126678,512.982849 251.531998,513.000000 122.468658,513.000000 
	C122.058685,510.394409 124.252785,510.948486 125.674591,510.701996 
	C149.161652,506.630096 168.723602,495.521027 185.322159,478.511749 
	C204.177597,459.189758 223.483826,440.308411 242.524902,421.166595 
	C249.649063,414.004730 250.836060,403.715454 245.712662,395.526306 
	C239.792648,386.063873 227.296158,383.097076 217.596664,388.838684 
	C214.840012,390.470490 212.583328,392.683289 210.341400,394.926270 
	C191.489975,413.786530 172.642120,432.650421 153.774017,451.493988 
	C129.184494,476.051575 92.417442,477.712341 65.965912,455.360535 
	C37.274464,431.115967 34.633953,388.386261 61.879337,360.926971 
	C101.203766,321.293732 141.110748,282.234406 180.167435,242.341110 
	C205.942810,216.013611 245.315948,212.771072 274.523804,240.189514 
	C284.624512,249.671417 300.275879,246.916122 306.849243,234.780304 
	C311.229187,226.693924 308.949005,215.632080 301.448975,208.800491 
	C284.334808,193.211655 264.529022,182.954544 241.382553,180.612625 
	C208.324753,177.267899 178.762772,185.886902 154.798325,209.596161 
	C113.568520,250.386932 72.663994,291.507233 31.731560,332.597443 
	C17.750206,346.632690 8.757759,363.524811 4.379824,382.859406 
	C3.873733,385.094513 3.875221,387.554932 1.372113,389.054779 
	C1.000000,261.071899 1.020725,133.143768 0.896091,5.215776 
	C0.892493,1.523417 1.762153,0.906953 5.279626,0.909884 
	C133.873917,1.017062 262.468292,1.000000 391.531342,1.000000 
	C392.037018,3.320172 390.141876,2.952359 388.813995,3.182841 
	C366.109711,7.123704 346.745422,17.304741 330.503937,33.703697 
	C306.937958,57.498138 283.131592,81.054276 259.511078,104.794983 
	C249.995712,114.358788 251.268082,129.733475 262.387177,136.818405 
	C269.742004,141.504807 277.581696,140.962204 285.121246,136.704330 
	C287.608948,135.299438 289.547028,133.190140 291.551056,131.185852 
	C314.523407,108.210472 337.482971,85.222298 360.475525,62.267166 
	C385.940369,36.843815 426.474670,36.191326 451.714355,61.699337 
	C477.615662,87.876030 477.887756,126.733559 452.566650,152.488800 
	C408.648041,197.160492 364.084381,241.198090 319.773926,285.484283 
	C294.145966,311.098206 254.798340,311.662476 228.486755,286.663757 
	C222.325455,280.809875 215.297424,278.810608 207.379578,281.156158 
	C192.522629,285.557251 187.739120,304.345947 198.840195,315.426727 
	C214.596405,331.154114 233.495590,341.356873 255.652008,344.633148 
	C291.957916,350.001709 323.502655,340.284088 349.662598,314.088318 
	C393.459625,270.231262 437.310272,226.427765 481.134827,182.598160 
	C496.409943,167.321304 506.188965,149.125519 510.293121,127.879135 
	C510.686707,125.841759 510.274597,123.442589 512.631836,121.947517 
z"/>
<path fill="#000000" opacity="1.000000" stroke="none" 
	d="
M513.000000,121.531342 
	C510.652069,130.231186 509.313995,138.696091 506.144379,146.758469 
	C501.413818,158.791397 495.201538,170.008743 486.208832,179.086639 
	C439.426117,226.312622 392.481537,273.382324 345.177338,320.085083 
	C331.997589,333.097229 315.464050,341.160980 297.282196,344.908325 
	C268.422394,350.856476 241.024658,346.613403 215.880630,330.883972 
	C208.849197,326.485260 202.288956,321.215607 196.577560,315.073486 
	C191.237350,309.330536 190.052261,295.864319 194.230408,289.376923 
	C199.393143,281.360779 209.409088,277.883820 218.211380,279.446564 
	C225.751617,280.785278 229.617401,286.644958 234.963608,290.617493 
	C247.705032,300.084991 261.977173,304.992706 277.619720,303.798981 
	C293.100464,302.617645 306.935608,296.626953 318.187164,285.351837 
	C362.436768,241.009567 406.752747,196.733551 451.058899,152.447769 
	C461.251892,142.259445 466.982025,129.993286 469.054596,115.756317 
	C472.091949,94.892166 465.072174,77.313408 450.921234,62.710854 
	C440.964355,52.436157 428.348145,46.632629 413.729980,44.860378 
	C393.382050,42.393475 376.243011,48.745895 361.984039,62.668282 
	C337.906036,86.177948 314.255249,110.126884 290.544312,134.009750 
	C283.281372,141.325287 274.639526,142.976303 265.434784,139.866135 
	C251.709610,135.228577 247.028595,115.860825 256.920685,105.772240 
	C283.280243,78.889191 309.642609,51.979118 336.890198,26.009760 
	C349.575958,13.919109 365.683044,6.817123 382.990570,2.897707 
	C385.914795,2.235495 388.812012,2.219734 391.852692,1.394082 
	C401.020905,1.000000 410.041779,1.000000 419.531342,1.000000 
	C430.524323,1.636613 440.569672,4.112703 450.190186,8.486304 
	C475.644257,20.058065 494.166656,38.503628 505.568024,64.042862 
	C509.733032,73.372475 512.776428,82.997162 512.773926,93.692780 
	C513.000000,103.020897 513.000000,112.041786 513.000000,121.531342 
z"/>
<path fill="#000000" opacity="1.000000" stroke="none" 
	d="
M1.000000,389.468658 
	C4.292198,382.087463 4.966104,374.384735 7.817821,367.268799 
	C12.626984,355.268433 18.779531,344.027405 27.762726,334.944672 
	C70.641609,291.590759 113.674538,248.383331 157.135880,205.614822 
	C170.196762,192.762161 186.650803,184.859024 204.655136,181.105087 
	C220.678818,177.764130 236.838394,177.772034 252.932632,181.426453 
	C270.286041,185.366776 285.401520,193.364624 298.790405,205.082153 
	C303.277832,209.009399 307.758575,212.559723 309.147339,218.659027 
	C311.786255,230.248947 309.524841,237.699265 300.074432,243.904953 
	C291.588776,249.477142 279.779694,247.377045 273.194000,240.905350 
	C263.083008,230.969406 250.894302,224.852982 236.547745,222.904877 
	C216.284164,220.153290 198.795105,226.124054 184.601227,240.112717 
	C143.782135,280.341553 103.434662,321.049103 62.924774,361.591461 
	C52.768764,371.755585 46.863754,383.940002 44.926643,398.266907 
	C42.403217,416.930206 47.855000,432.866486 59.631443,447.252319 
	C69.180351,458.917053 81.547836,465.995789 95.859474,468.732086 
	C116.709663,472.718475 135.645737,467.085876 150.965088,452.346008 
	C171.610901,432.481140 191.710403,412.041229 211.792206,391.600403 
	C222.552887,380.647308 244.682770,382.319702 249.255554,400.740631 
	C251.144608,408.350464 250.133026,415.322327 244.442215,421.036041 
	C222.691910,442.873993 201.242538,465.031494 178.936478,486.288666 
	C165.323135,499.261871 148.701385,507.468781 130.001831,511.086182 
	C127.428680,511.583984 124.873451,511.937897 122.143799,512.608582 
	C112.979103,513.000000 103.958214,513.000000 94.468658,513.000000 
	C83.303917,512.352783 73.114929,509.773529 63.356209,505.305725 
	C38.603252,493.972992 20.489998,475.965210 9.002635,451.335175 
	C5.194908,443.170990 2.412880,434.639923 1.225062,425.304077 
	C1.000000,413.312439 1.000000,401.624878 1.000000,389.468658 
z"/>
<path fill="#FFFFFF" opacity="1.000000" stroke="none" 
	d="
M513.000000,93.531342 
	C511.416534,87.557724 510.128174,81.025116 508.189209,74.691681 
	C503.947754,60.837315 496.702850,48.714382 487.285950,37.622063 
	C470.929230,18.355103 449.980011,7.450816 425.745911,2.058103 
	C423.995483,1.668588 422.114807,1.864492 420.147339,1.394103 
	C449.763000,1.000000 479.526306,1.060292 509.288574,0.912511 
	C512.482361,0.896652 513.088867,1.727028 513.075806,4.771649 
	C512.949524,34.201561 513.000000,63.632229 513.000000,93.531342 
z"/>
<path fill="#FFFFFF" opacity="1.000000" stroke="none" 
	d="
M1.000000,425.468658 
	C3.757797,427.669342 3.318587,431.436249 4.270758,434.709564 
	C8.776676,450.199615 16.133501,463.994293 26.680595,476.358002 
	C43.089333,495.593048 64.003983,506.547546 88.251488,511.941803 
	C90.002785,512.331360 91.884315,512.135437 93.852646,512.605896 
	C64.072685,513.000000 34.145145,512.949646 4.218412,513.082275 
	C1.399340,513.094727 0.912397,512.450623 0.924390,509.733459 
	C1.047669,481.801849 1.000000,453.869476 1.000000,425.468658 
z"/>
</svg>