<?xml version="1.0" standalone="no"?>
<!DOCTYPE svg PUBLIC "-//W3C//DTD SVG 20010904//EN"
 "http://www.w3.org/TR/2001/REC-SVG-20010904/DTD/svg10.dtd">
<svg version="1.0" xmlns="http://www.w3.org/2000/svg"
 width="300.000000pt" height="300.000000pt" viewBox="0 0 300.000000 300.000000"
 preserveAspectRatio="xMidYMid meet">
<metadata>
Created by potrace 1.10, written by Peter Selinger 2001-2011
</metadata>
<g transform="translate(0.000000,300.000000) scale(0.100000,-0.100000)"
fill="#000000" stroke="none">
<path d="M529 2971 c-26 -26 -29 -36 -29 -93 0 -35 -5 -166 -10 -291 -9 -194
-8 -232 5 -256 8 -16 22 -32 32 -36 10 -3 152 -11 316 -17 l297 -11 25 23 c34
32 34 88 1 119 -22 21 -35 23 -197 28 -96 3 -180 9 -188 13 -20 11 141 115
250 162 148 63 263 89 425 95 225 9 390 -24 580 -117 338 -164 578 -481 650
-858 23 -118 22 -300 -1 -430 -18 -102 -18 -103 2 -130 39 -53 115 -45 139 15
22 53 44 217 44 333 0 582 -375 1104 -927 1288 -154 52 -249 66 -433 66 -131
0 -186 -5 -267 -22 -196 -42 -366 -115 -511 -220 l-75 -53 6 182 5 182 -28 29
c-37 37 -73 36 -111 -1z"/>
<path d="M212 1854 c-36 -15 -54 -64 -72 -197 -50 -379 68 -768 324 -1069 189
-221 474 -385 774 -445 120 -24 375 -24 496 0 195 39 389 120 531 222 56 41
75 50 75 37 0 -9 -7 -88 -15 -176 -15 -167 -13 -182 27 -210 32 -23 63 -20 95
8 l28 24 26 294 c16 175 23 302 18 315 -17 45 -42 51 -337 77 -156 15 -290 26
-298 26 -27 0 -64 -47 -64 -80 0 -74 24 -84 230 -100 182 -14 196 -16 180 -35
-23 -28 -177 -120 -263 -157 -49 -21 -132 -50 -185 -65 -90 -25 -111 -27 -292
-27 -178 0 -203 2 -291 26 -227 62 -403 163 -562 324 -99 102 -151 175 -217
309 -69 137 -104 261 -120 421 -12 113 -8 172 17 327 16 95 16 99 -4 124 -25
34 -61 44 -101 27z"/>
</g>
</svg>
