<?xml version="1.0" standalone="no"?>
<!DOCTYPE svg PUBLIC "-//W3C//DTD SVG 20010904//EN"
 "http://www.w3.org/TR/2001/REC-SVG-20010904/DTD/svg10.dtd">
<svg version="1.0" xmlns="http://www.w3.org/2000/svg"
 width="300.000000pt" height="300.000000pt" viewBox="0 0 300.000000 300.000000"
 preserveAspectRatio="xMidYMid meet">
<metadata>
Created by potrace 1.10, written by Peter Selinger 2001-2011
</metadata>
<g transform="translate(0.000000,300.000000) scale(0.100000,-0.100000)"
fill="#000000" stroke="none">
<path d="M1210 2994 c-400 -27 -637 -56 -733 -89 -194 -67 -355 -246 -401
-445 -38 -164 -76 -646 -76 -960 0 -314 38 -796 76 -960 25 -109 79 -206 164
-291 136 -137 229 -173 545 -208 491 -54 939 -54 1430 0 104 11 223 29 264 40
212 54 395 243 445 459 38 164 76 646 76 960 0 314 -38 796 -76 960 -25 109
-79 206 -164 291 -151 152 -246 183 -700 224 -155 15 -728 27 -850 19z m790
-264 c276 -25 420 -48 479 -76 71 -35 140 -104 174 -175 30 -59 53 -204 78
-489 18 -191 18 -789 0 -980 -24 -271 -48 -428 -75 -486 -32 -69 -111 -148
-180 -180 -143 -65 -857 -112 -1306 -85 -355 21 -568 50 -647 86 -68 31 -148
111 -179 179 -27 58 -51 215 -75 486 -18 191 -18 789 0 980 22 249 49 427 71
477 42 95 135 178 234 208 52 16 366 52 561 65 172 11 696 5 865 -10z"/>
<path d="M914 2336 c-30 -30 -34 -40 -34 -84 0 -62 32 -106 88 -122 50 -13
1014 -13 1064 0 56 16 88 60 88 122 0 44 -4 54 -34 84 l-34 34 -552 0 -552 0
-34 -34z"/>
<path d="M1445 1984 c-37 -19 -281 -259 -301 -296 -8 -15 -14 -45 -14 -68 0
-32 7 -48 34 -78 31 -33 40 -37 84 -37 38 0 57 6 85 28 l36 27 3 -423 c3 -384
5 -425 21 -450 53 -81 161 -81 214 0 16 25 18 66 21 450 l3 423 36 -27 c28
-22 47 -28 85 -28 44 0 53 4 84 37 27 30 34 46 34 78 0 23 -6 53 -14 68 -21
40 -277 289 -309 301 -39 15 -67 14 -102 -5z"/>
</g>
</svg>
