<?xml version="1.0" standalone="no"?>
<!DOCTYPE svg PUBLIC "-//W3C//DTD SVG 20010904//EN"
 "http://www.w3.org/TR/2001/REC-SVG-20010904/DTD/svg10.dtd">
<svg version="1.0" xmlns="http://www.w3.org/2000/svg"
 width="300.000000pt" height="300.000000pt" viewBox="0 0 300.000000 300.000000"
 preserveAspectRatio="xMidYMid meet">
<metadata>
Created by potrace 1.10, written by Peter Selinger 2001-2011
</metadata>
<g transform="translate(0.000000,300.000000) scale(0.100000,-0.100000)"
fill="#000000" stroke="none">
<path d="M1230 2451 c-192 -42 -385 -151 -511 -289 -105 -115 -193 -276 -226
-410 l-17 -71 -44 -11 c-143 -36 -298 -162 -366 -299 -67 -131 -82 -266 -46
-405 50 -198 185 -342 385 -413 l80 -28 940 0 c867 0 946 1 1016 18 207 48
391 193 483 381 56 113 71 183 70 326 0 106 -4 136 -26 202 -40 119 -92 204
-182 294 -122 121 -242 182 -412 205 l-84 12 -37 61 c-50 82 -177 213 -269
276 -89 62 -173 101 -291 136 -121 36 -336 43 -463 15z m389 -176 c36 -9 113
-38 170 -66 93 -45 115 -62 201 -148 61 -62 108 -119 130 -160 19 -35 47 -77
62 -93 24 -26 32 -28 100 -28 153 0 268 -48 379 -159 114 -114 159 -222 159
-382 0 -230 -135 -422 -358 -508 l-67 -26 -402 -3 -403 -3 0 280 0 281 100
-100 c55 -55 111 -102 125 -106 31 -8 82 12 95 37 6 10 10 33 10 51 0 30 -19
53 -193 226 -175 173 -196 192 -227 192 -31 0 -52 -19 -227 -192 -174 -173
-193 -196 -193 -226 0 -18 4 -41 10 -51 13 -25 64 -45 94 -37 14 3 70 51 125
105 l101 100 0 -280 0 -279 -437 0 c-465 0 -490 2 -582 50 -63 32 -142 115
-177 185 -27 55 -29 69 -29 170 0 104 2 114 32 176 60 122 176 206 312 228 38
6 73 18 83 29 11 11 26 54 37 108 93 454 521 732 970 629z"/>
</g>
</svg>
